<svg width="35" height="36" viewBox="0 0 35 36" fill="none" xmlns="http://www.w3.org/2000/svg"><g clip-path="url(#clip0_161_118)"><path d="M31.7188.665039H3.28125C1.47656.665039 0 2.1416 0 3.94629V32.3838c0 1.8047 1.47656 3.2812 3.28125 3.2812H17.5V20.3525h-4.375v-4.375H17.5V13.79c0-3.6159 2.9466-6.56246 6.5625-6.56246h4.375v4.37496h-4.375c-1.2031 0-2.1875.9844-2.1875 2.1875v2.1875h6.5625l-1.0937 4.375H21.875V35.665h9.8438c1.8046 0 3.2812-1.4765 3.2812-3.2812V3.94629C35 2.1416 33.5234.665039 31.7188.665039z" fill="url(#paint0_linear_161_118)"/></g><defs><linearGradient id="paint0_linear_161_118" x1="17.5" y1=".665039" x2="17.5" y2="35.665" gradientUnits="userSpaceOnUse"><stop stop-color="#4176FF"/><stop offset=".515625" stop-color="#4198FF"/><stop offset="1" stop-color="#41AFFF"/></linearGradient><clipPath id="clip0_161_118"><path fill="#fff" transform="translate(0 .665039)" d="M0 0h35v35H0z"/></clipPath></defs></svg>