<svg width="36" height="36" viewBox="0 0 36 36" fill="none" xmlns="http://www.w3.org/2000/svg"><g clip-path="url(#clip0_161_120)"><path d="M17.6641 3.81625c4.6758 0 5.2292.02078 7.0678.10281 1.7095.07547 2.6316.36203 3.2473.60157.8138.315 1.4011.69781 2.0093 1.30593.6157.61578.9909 1.19657 1.3125 2.01032.2395.61578.5261 1.54437.6015 3.24732.0821 1.8463.1028 2.3997.1028 7.0689s-.0207 5.2292-.1028 7.0689c-.0754 1.7096-.362 2.6316-.6015 3.2474-.315.8137-.6968 1.4011-1.306 2.0092-.6158.6158-1.1965.9909-2.0092 1.3125-.6158.2395-1.5455.5261-3.2473.6016-1.8463.082-2.3997.1028-7.0689.1028-4.6693 0-5.2293-.0208-7.0689-.1028-1.70958-.0755-2.63161-.3621-3.24739-.6016-.81375-.315-1.40109-.6967-2.01031-1.3059-.61578-.6158-.99094-1.1966-1.3125-2.0093-.23953-.6157-.52609-1.5454-.60156-3.2473-.08203-1.8463-.10282-2.3997-.10282-7.0689s.02079-5.2292.10282-7.0689c.07547-1.70955.36203-2.63158.60156-3.24736.315-.81375.69781-1.4011 1.30594-2.01032.61578-.61578 1.19656-.99093 2.01031-1.31249.61578-.23954 1.54437-.5261 3.24735-.60157 1.8386-.08203 2.3931-.10281 7.0689-.10281h.0011zm0-3.151094c-4.7513 0-5.3452.020781-7.2122.102813C8.59253.85 7.31394 1.15078 6.20706 1.58172c-1.155.45062-2.13281 1.04562-3.10297 2.02344-.97781.97125-1.57281 1.94797-2.02343 3.0964C.649718 7.81609.348937 9.08703.266906 10.9464.184874 12.82.164093 13.4139.164093 18.1652c0 4.7512.020781 5.3451.102813 7.2121.082031 1.8594.382812 3.138.813754 4.2449.45171 1.155 1.04562 2.1328 2.02343 3.103.97016.9701 1.94797 1.5728 3.09641 2.0168 1.11453.431 2.38547.7317 4.2448.8138 1.866.082 2.461.1028 7.2122.1028 4.7513 0 5.3463-.0208 7.2122-.1028 1.8594-.0821 3.138-.3828 4.2449-.8138 1.1484-.444 2.1262-1.0456 3.0964-2.0168.9701-.9713 1.5728-1.948 2.0168-3.0964.431-1.1146.7318-2.3855.8138-4.2449.082-1.8659.1028-2.4609.1028-7.2122 0-4.7512-.0208-5.3451-.1028-7.2122-.082-1.85934-.3828-3.13794-.8138-4.24481-.4309-1.16266-1.0259-2.13938-2.0026-3.11063-.9702-.97015-1.948-1.57281-3.0964-2.01687-1.1146-.43094-2.3855-.731721-4.2449-.813752-1.8725-.088594-2.4675-.109376-7.2187-.109376l-.0011.001094z" fill="url(#paint0_linear_161_120)"/><path d="M17.6641 9.17529c-4.9624 0-8.98954 4.02611-8.98954 8.98951 0 4.9635 4.02614 8.9896 8.98954 8.9896s8.9895-4.0261 8.9895-8.9896c0-4.9623-4.0261-8.98951-8.9895-8.98951zm0 14.82031c-3.22 0-5.8308-2.6108-5.8308-5.8308s2.6108-5.8308 5.8308-5.8308 5.8308 2.6108 5.8308 5.8308-2.6108 5.8308-5.8308 5.8308z" fill="url(#paint1_linear_161_120)"/><path d="M29.1069 8.8201c0 1.15937-.9395 2.0989-2.0989 2.0989s-2.0989-.93953-2.0989-2.0989c0-1.15938.9395-2.09891 2.0989-2.09891s2.0989.93953 2.0989 2.09891z" fill="url(#paint2_linear_161_120)"/></g><defs><linearGradient id="paint0_linear_161_120" x1="17.6542" y1=".664062" x2="17.6542" y2="35.6586" gradientUnits="userSpaceOnUse"><stop stop-color="#4176FF"/><stop offset=".515625" stop-color="#4198FF"/><stop offset="1" stop-color="#41AFFF"/></linearGradient><linearGradient id="paint1_linear_161_120" x1="17.6641" y1="9.17529" x2="17.6641" y2="27.1544" gradientUnits="userSpaceOnUse"><stop stop-color="#4176FF"/><stop offset=".515625" stop-color="#4198FF"/><stop offset="1" stop-color="#41AFFF"/></linearGradient><linearGradient id="paint2_linear_161_120" x1="27.008" y1="6.72119" x2="27.008" y2="10.919" gradientUnits="userSpaceOnUse"><stop stop-color="#4176FF"/><stop offset=".515625" stop-color="#4198FF"/><stop offset="1" stop-color="#41AFFF"/></linearGradient><clipPath id="clip0_161_120"><path fill="#fff" transform="translate(.164093 .665039)" d="M0 0h35v35H0z"/></clipPath></defs></svg>