<svg width="240" height="324" viewBox="0 0 240 324" fill="none" xmlns="http://www.w3.org/2000/svg">
<path fill-rule="evenodd" clip-rule="evenodd" d="M154.008 150.111C150.095 147.262 148.155 142.597 146.695 141.803C145.62 141.219 145.64 137.188 143.487 135.761C140.598 133.846 131.39 132.422 128.04 132.156C124.825 131.901 119.232 132.437 116.215 133.615C111.185 135.579 109.178 139.326 106.963 144.153C106.963 144.153 156.697 152.069 154.008 150.111Z" fill="#FFDBB4"/>
<path fill-rule="evenodd" clip-rule="evenodd" d="M81.0305 153.44H160.544L188.066 177.934L200.282 280.884L182.907 286.297L75.5501 288.092L42.0216 278.609L39.9296 206.947L81.0305 153.44Z" fill="#78E185"/>
<path fill-rule="evenodd" clip-rule="evenodd" d="M189.101 262.182C188.548 261.906 187.97 261.589 187.338 261.567C186.251 261.529 186.25 259.838 187.338 259.876C188.286 259.909 189.12 260.305 189.955 260.722C190.929 261.209 190.072 262.667 189.101 262.182M187.338 214.59C188.079 214.59 188.826 214.684 189.396 215.203C189.734 215.511 189.707 216.086 189.396 216.398C189.062 216.732 188.538 216.706 188.2 216.398C188.31 216.498 188.201 216.399 188.161 216.377C188.152 216.372 188.147 216.368 188.144 216.366C188.136 216.364 188.127 216.362 188.113 216.359C188.025 216.336 187.938 216.315 187.848 216.299C187.847 216.303 187.66 216.286 187.616 216.284C187.523 216.281 187.43 216.281 187.338 216.281C186.879 216.28 186.493 215.894 186.493 215.435C186.493 214.979 186.881 214.59 187.338 214.59M179.391 233.556C179.149 234.618 177.52 234.165 177.761 233.106C178.112 231.566 178.048 229.988 177.761 228.442C177.563 227.377 179.192 226.925 179.391 227.993C179.735 229.847 179.812 231.708 179.391 233.556M177.256 172.79C175.997 172.491 174.752 172.456 173.465 172.455C172.376 172.455 172.377 170.764 173.465 170.764C174.901 170.765 176.303 170.827 177.705 171.16C178.765 171.412 178.313 173.041 177.256 172.79M173.038 213.974C172.308 213.609 171.578 213.244 170.848 212.878C169.874 212.391 170.731 210.933 171.701 211.418L173.891 212.514C174.865 213.001 174.009 214.459 173.038 213.974M172.734 247.27C171.808 248.606 170.506 249.436 168.944 249.85C167.89 250.13 167.444 248.498 168.494 248.22C169.612 247.923 170.605 247.384 171.275 246.417C171.891 245.528 173.356 246.374 172.734 247.27M166.894 187.741C166.644 187.272 166.267 187.074 165.798 187.064C164.711 187.039 164.711 185.348 165.798 185.373C166.865 185.397 167.844 185.933 168.353 186.887C168.867 187.847 167.407 188.701 166.894 187.741M156.174 199.233C155.871 199.563 155.284 199.555 154.979 199.233C154.792 199.036 154.636 198.816 154.512 198.575C154.465 198.484 154.421 198.39 154.37 198.302C154.347 198.262 154.321 198.223 154.295 198.185C154.286 198.177 154.268 198.158 154.249 198.138C153.924 197.794 153.932 197.287 154.249 196.942C154.552 196.612 155.139 196.62 155.444 196.942C155.63 197.139 155.787 197.359 155.91 197.6C155.957 197.692 156.002 197.785 156.053 197.874C156.076 197.914 156.102 197.953 156.128 197.991C156.137 197.999 156.155 198.018 156.174 198.038C156.499 198.381 156.491 198.888 156.174 199.233M155.273 224.2C154.172 224.704 152.965 224.704 151.864 224.2C151.447 224.009 151.349 223.407 151.561 223.043C151.808 222.622 152.303 222.55 152.717 222.74C153.217 222.968 153.921 222.968 154.42 222.74C154.837 222.549 155.327 222.617 155.576 223.043C155.79 223.409 155.688 224.01 155.273 224.2M152.271 241.872C152.081 242.32 151.673 242.558 151.196 242.576C150.723 242.594 150.37 242.174 150.351 241.731C150.338 241.444 150.493 241.199 150.715 241.047C150.715 241.032 150.716 241.016 150.716 241C150.716 240.526 151.103 240.175 151.561 240.155C152.017 240.134 152.406 240.558 152.406 241C152.406 241.299 152.387 241.595 152.271 241.872M147.91 269.967C146.561 269.989 145.243 270.31 143.894 270.332C142.804 270.35 142.808 268.659 143.894 268.641C145.243 268.619 146.561 268.298 147.91 268.276C149 268.258 148.997 269.949 147.91 269.967M142.301 161.616C141.512 162.369 140.537 162.739 139.575 163.21C138.601 163.686 137.745 162.227 138.722 161.75C139.536 161.351 140.438 161.057 141.106 160.421C141.894 159.67 143.091 160.864 142.301 161.616M140.182 181.105C139.628 180.828 139.051 180.512 138.418 180.49C137.332 180.452 137.33 178.761 138.418 178.799C139.367 178.832 140.2 179.228 141.035 179.645C142.01 180.132 141.153 181.589 140.182 181.105M130.022 259.322C129.772 258.854 129.395 258.656 128.927 258.645C127.839 258.621 127.838 256.93 128.927 256.955C129.993 256.979 130.972 257.515 131.482 258.469C131.995 259.429 130.535 260.282 130.022 259.322M126.504 222.607C126.167 222.298 126.191 221.724 126.504 221.411C126.869 221.046 127.234 220.681 127.599 220.316C127.933 219.982 128.456 220.006 128.794 220.316C129.13 220.625 129.107 221.198 128.794 221.511C128.429 221.877 128.064 222.242 127.699 222.607C127.364 222.941 126.841 222.917 126.504 222.607M122.355 279.828C121.136 279.799 119.993 279.449 118.845 279.067C117.816 278.725 118.26 277.092 119.294 277.437C120.292 277.769 121.294 278.112 122.355 278.137C123.443 278.162 123.443 279.853 122.355 279.828M116.879 243.672C115.777 243.641 114.864 243.08 114.091 242.328C113.31 241.568 114.506 240.374 115.286 241.133C115.728 241.563 116.239 241.963 116.879 241.981C117.966 242.011 117.967 243.702 116.879 243.672M120.28 197.175C120.293 197.625 120.483 198.107 120.762 198.403C121.509 199.194 120.316 200.391 119.567 199.599C118.95 198.945 118.615 198.069 118.589 197.175C118.558 196.084 120.249 196.089 120.28 197.175M107.388 160.35C107.034 159.657 106.571 158.845 105.866 158.462C104.908 157.942 105.762 156.483 106.719 157.002C107.677 157.522 108.363 158.548 108.847 159.496C109.342 160.465 107.883 161.319 107.388 160.35M105.197 177.933C104.805 177.922 104.416 177.855 104.038 177.753C103.876 177.709 103.716 177.658 103.554 177.614C103.485 177.595 103.191 177.559 103.372 177.568C102.914 177.544 102.527 177.201 102.527 176.723C102.527 176.283 102.915 175.853 103.372 175.877C103.999 175.911 104.569 176.225 105.197 176.243C106.284 176.273 106.285 177.964 105.197 177.933M99.7209 204.959H97.8955C96.8062 204.959 96.8081 203.268 97.8955 203.268H99.7209C100.81 203.268 100.808 204.959 99.7209 204.959M97.5917 279.712C97.0382 279.989 96.3858 280.252 95.9375 280.676C95.147 281.423 93.9503 280.229 94.7424 279.48C95.3134 278.94 96.0436 278.6 96.7389 278.252C97.1485 278.047 97.6522 278.14 97.8951 278.556C98.1146 278.931 97.9999 279.508 97.5917 279.712M93.5132 258.349C93.4424 258.329 93.3677 258.315 93.296 258.306C93.0087 258.267 92.7081 258.28 92.4195 258.28C91.3302 258.28 91.3319 256.589 92.4195 256.589C93.2766 256.59 94.1686 256.602 94.8425 257.202C95.1846 257.507 95.1514 258.089 94.8425 258.398C94.5066 258.734 93.9879 258.701 93.6474 258.398C93.6833 258.43 93.5601 258.362 93.5132 258.349M92.4199 229.617C92.6654 229.111 92.6692 228.781 92.6696 228.218C92.6705 227.128 94.3606 227.13 94.3598 228.218C94.3593 229.035 94.2379 229.731 93.8793 230.471C93.6793 230.883 93.0936 230.991 92.7233 230.774C92.3079 230.531 92.2211 230.028 92.4199 229.617M87.5331 189.955C86.5528 190.289 85.6777 190.761 84.8145 191.331C83.9033 191.932 83.0576 190.468 83.9614 189.871C84.9465 189.221 85.9655 188.705 87.0837 188.325C88.1177 187.973 88.5573 189.607 87.5331 189.955M81.8324 161.499C81.1042 161.519 80.3525 161.799 79.7035 162.114C78.7281 162.588 77.8722 161.129 78.8506 160.654C79.7777 160.203 80.792 159.837 81.8324 159.808C82.9224 159.777 82.9177 161.468 81.8324 161.499M79.277 237.463C78.9905 237.476 78.7456 237.321 78.5939 237.098C78.5781 237.098 78.5625 237.098 78.5468 237.098C78.0732 237.098 77.7225 236.711 77.7018 236.252C77.6813 235.796 78.1049 235.407 78.5468 235.407C78.8451 235.407 79.1411 235.425 79.4183 235.542C79.866 235.731 80.1039 236.14 80.122 236.618C80.14 237.091 79.7204 237.443 79.277 237.463M75.1207 178.999C74.0827 179.338 73.642 177.705 74.6713 177.369C75.8796 176.974 77.1142 176.668 78.3223 176.273C79.3602 175.933 79.8009 177.567 78.7714 177.903C77.5636 178.298 76.3287 178.604 75.1207 178.999M71.3303 210.912C71.0084 211.95 69.3776 211.505 69.7004 210.463C70.0122 209.457 70.0346 208.445 70.0353 207.401C70.0359 206.311 71.7261 206.313 71.7254 207.401C71.7248 208.59 71.6849 209.768 71.3303 210.912M60.0303 249.136C59.9688 249.557 59.635 249.861 59.1981 249.88C58.7534 249.9 58.337 249.477 58.353 249.035C58.3841 248.184 59.0777 247.49 59.9282 247.459C60.4015 247.442 60.7534 247.86 60.7733 248.304C60.7927 248.736 60.4323 249.073 60.0303 249.136M54.3117 200.546C53.4186 200.845 52.4643 201.129 51.7642 201.79C50.973 202.537 49.7764 201.343 50.5691 200.594C51.4923 199.722 52.6798 199.311 53.8625 198.916C54.8981 198.57 55.3382 200.204 54.3117 200.546M50.436 233.392C50.1905 233.812 49.6934 233.888 49.2799 233.695C48.7255 233.438 48.1135 233.446 47.5158 233.446C46.4267 233.445 46.4284 231.754 47.5158 231.755C48.4378 231.756 49.2884 231.843 50.133 232.235C50.5486 232.429 50.6498 233.027 50.436 233.392M48.246 273.254C47.7727 273.271 47.4208 272.853 47.4009 272.409C47.3815 271.977 47.7417 271.64 48.1441 271.577C48.2054 271.156 48.5394 270.852 48.9761 270.833C49.421 270.813 49.8374 271.236 49.8212 271.678C49.7901 272.529 49.097 273.223 48.246 273.254M202.223 279.647C201.936 278.613 201.279 277.778 200.783 276.849C200.616 276.535 200.558 276.34 200.468 276.111C200.346 276.356 200.108 276.541 199.75 276.541C199.064 276.541 198.261 276.497 197.621 276.791C197.204 276.981 196.714 276.914 196.465 276.487C196.251 276.121 196.353 275.521 196.768 275.331C197.712 274.898 198.726 274.85 199.75 274.85C200.003 274.85 200.194 274.943 200.329 275.083C200.721 269.723 200.711 264.359 200.341 258.996C199.946 253.264 199.037 247.646 198.087 241.988C197.626 239.245 197.028 236.474 197.145 233.68C197.261 230.905 198.45 228.318 197.607 225.535C197.269 224.419 196.69 223.396 196.314 222.293C195.911 221.105 195.947 219.932 196.131 218.702C196.509 216.197 197.136 213.722 196.132 211.277C195.689 210.193 194.97 209.225 194.624 208.105C194.193 206.712 194.252 205.171 194.181 203.728C194.035 200.815 193.997 197.884 193.756 194.978C193.648 193.676 193.414 192.442 192.879 191.247C192.366 190.098 191.603 189.052 191.263 187.832C190.925 186.632 190.895 185.366 190.714 184.138C190.524 182.84 190.226 181.561 189.824 180.314C188.274 175.487 185.432 171.15 182.075 167.39C178.507 163.394 174.241 160.384 169.714 157.579C167.333 156.105 164.952 154.63 162.573 153.155C162.523 153.432 162.346 153.686 162.007 153.799C161.114 154.098 160.16 154.381 159.46 155.043C158.669 155.789 157.472 154.596 158.265 153.847C159.092 153.066 160.131 152.655 161.188 152.294C160.104 151.61 159.009 150.902 157.785 150.508C156.714 150.161 155.134 150.463 154.266 149.677C153.583 149.058 153.368 147.91 153.106 147.069C152.778 146.025 152.495 144.924 152.079 143.909C151.796 143.216 151.384 142.55 150.864 142.013C150.636 141.134 150.218 140.331 149.478 139.843C147.543 138.562 145.166 139.834 144.315 141.66C143.612 141.658 142.87 141.813 142.185 141.855C140.778 141.944 139.369 141.984 137.96 141.98C135.203 141.971 132.444 141.792 129.71 141.426C124.821 140.771 120.078 139.45 115.272 138.42C115.245 138.357 115.213 138.294 115.175 138.23C114.14 136.493 111.56 136.787 109.935 137.444C109.238 137.725 108.528 138.08 108.129 138.74C107.707 139.025 107.341 139.372 107.098 139.737C106.595 140.492 106.207 142.013 105.186 142.14C104.514 142.223 103.832 142.094 103.15 142.191C102.296 142.309 101.531 142.609 100.743 142.952C94.7432 145.558 88.5404 148.455 82.0289 149.466C80.5017 149.702 78.9467 149.948 77.62 150.803C76.5425 151.499 75.7099 152.454 74.8207 153.361C73.9545 154.244 73.2404 154.635 72.0045 154.794C70.5045 154.986 69.2052 155.4 68.1087 156.491C67.1982 157.398 66.6045 158.556 65.8904 159.608C65.1634 160.682 64.0967 161.286 62.9897 161.91C60.3721 163.385 57.9341 165.167 55.8108 167.304C51.3383 171.81 48.6298 177.601 45.9003 183.244C42.9489 189.347 40.1897 195.525 38.2756 202.043C36.3996 208.443 35.2841 215.026 34.7686 221.671C34.2256 228.644 34.1496 235.644 33.6974 242.62C33.4714 246.106 33.3003 249.595 33.127 253.082C32.958 256.527 32.7108 259.979 32.7508 263.428C32.827 270.096 34.1599 276.785 36.4904 283.028C37.0714 284.582 37.7155 286.114 38.4022 287.623C39.0045 288.948 41.0643 288.8 41.7108 287.623C41.8587 287.353 41.9749 287.074 42.0721 286.79C43.7622 286.805 45.4693 286.674 47.1489 286.831C50.1151 287.108 53.0874 287.262 56.062 287.446C61.9482 287.811 67.8446 288.054 73.7327 288.39C74.3039 288.423 74.8752 288.456 75.4463 288.49C71.2503 275.497 71.7945 261.451 71.1305 247.939C71.077 246.85 72.7676 246.856 72.8206 247.939C73.4874 261.509 72.9197 275.591 77.264 288.605C78.9495 288.719 80.6327 288.858 82.3101 289.062C83.6663 289.225 85.0291 289.418 86.3982 289.35C87.951 289.276 89.4679 288.921 90.9827 288.612C93.7355 288.052 96.3869 288.306 99.1503 288.65C102.106 289.02 105.072 289.225 108.047 289.354C119.958 289.876 131.95 290.352 143.857 289.555C146.738 289.363 149.614 289.092 152.476 288.724C155.426 288.346 158.343 287.71 161.29 287.348C164.195 286.993 166.866 287.968 169.737 288.147C172.665 288.331 175.671 287.72 178.572 287.37C179.518 287.255 180.466 287.143 181.413 287.032C180.193 278.668 179.5 270.241 178.826 261.817C178.739 260.731 180.43 260.74 180.516 261.817C181.184 270.175 181.863 278.54 183.081 286.838C188.103 286.253 193.131 285.662 198.102 284.751C199.517 284.493 200.924 284.073 201.771 282.809C202.399 281.872 202.526 280.725 202.223 279.647" fill="black"/>
<path fill-rule="evenodd" clip-rule="evenodd" d="M129.619 53.9492C141.59 53.9492 153.971 63.2512 158.359 69.187C162.048 74.1775 164.035 96.7446 164.035 111.996C164.035 115.185 165.791 121.198 165.278 124.249C163.401 135.429 155.22 144.806 139.029 144.806C122.839 144.806 111.23 138.372 99.1957 121.098C93.3567 121.098 90.5268 116.609 90.4857 109.525C90.4446 102.44 96.1219 99.863 96.1219 99.863C96.1219 99.863 94.0977 71.9058 99.1957 64.6271C104.294 57.3483 117.649 53.9492 129.619 53.9492Z" fill="#FFDBB4"/>
<path fill-rule="evenodd" clip-rule="evenodd" d="M124.582 49.9962C132.14 49.229 139.546 49.8736 146.994 51.2074C147.563 51.3108 147.886 51.6851 148.006 52.135C151.514 52.2957 155.026 52.5537 158.53 52.7461C159.802 52.8158 160.522 54.0752 159.943 55.2125C159.827 55.4384 159.706 55.6582 159.584 55.8781L159.738 55.8273C160.792 55.4883 161.93 55.3212 162.957 55.8592C164.264 56.544 164.777 58.055 164.488 59.4456C164.414 59.8007 164.29 60.141 164.149 60.473C164.435 60.454 164.724 60.4603 165.011 60.4984C166.537 60.7013 167.672 61.8743 167.752 63.4362C167.87 65.7946 166.354 68.1873 164.568 69.8758C164.827 70.4107 164.927 71.0405 164.819 71.6788C164.604 72.9406 163.677 73.6962 162.602 74.189C163.05 75.6158 163.262 77.1076 163.137 78.632C163.095 79.141 162.651 79.5613 162.183 79.6645C163.929 84.4862 164.814 89.663 165.449 94.7073C165.903 98.2963 166.126 101.906 166.153 105.522C166.167 107.155 166.14 108.789 166.072 110.422L166.044 111.034C165.96 112.799 165.955 114.652 165.639 116.398C166.719 118.239 167.153 120.524 167.336 122.587C167.564 125.14 167.203 127.773 166.4 130.202C163.368 139.378 154.219 145.169 145.029 146.674C136.523 148.067 126.679 146.192 121.708 138.446C121.63 138.324 121.797 138.222 121.894 138.303C125.45 141.202 129.576 142.496 134.058 143.126C141.808 144.212 150.519 142.369 156.738 137.483C159.723 135.137 161.876 131.721 162.823 128.046C163.305 126.167 163.472 124.208 163.282 122.274C163.088 120.313 162.222 118.639 161.676 116.785C161.492 116.159 161.686 115.578 162.068 115.164C162.175 113.659 162.428 112.142 162.525 110.641C162.633 108.935 162.698 107.23 162.721 105.522C162.766 101.98 162.618 98.4313 162.321 94.9041C161.777 88.445 160.333 82.1428 159.485 75.7386C159.171 76.0208 158.722 76.1366 158.25 75.8901L158.201 75.8633L157.944 75.7156C157.929 75.7156 157.913 75.7177 157.898 75.7196C156.137 75.891 154.312 75.6459 152.625 75.1194C150.86 74.5701 149.222 73.7247 147.759 72.5982C147.481 74.0119 147.365 75.4406 147.363 76.882C147.361 77.7824 146.41 78.2497 145.655 77.865C142.31 76.1613 139.114 74.1981 136.08 71.9916C135.725 73.8113 135.371 75.6309 135.015 77.4527C134.878 78.1546 133.986 78.4378 133.415 78.1039C131.142 76.7785 129.18 75.0435 127.582 72.9805C127.263 73.5922 126.943 74.2037 126.62 74.8139L126.135 75.7281C125.657 76.6263 125.016 77.6199 123.968 77.9071C122.859 78.2114 121.933 77.4909 121.561 76.4847C121.447 76.1721 121.341 75.8507 121.244 75.5273C120.3 77.6896 119.233 79.8031 118.027 81.8194C116.218 84.8436 114.047 87.5383 111.882 90.3028C111.224 91.1421 110.098 90.3408 110.007 89.5252C109.955 89.0455 109.911 88.5636 109.872 88.0836C108.611 90.6359 107.294 93.1643 105.86 95.6193L106.066 96.426V96.426C106.657 98.8096 107.149 101.21 107.683 103.606C107.855 104.38 107.446 105.485 106.545 105.617C105.468 105.774 104.45 106.325 103.347 105.946C102.145 105.532 101.907 104.49 101.34 103.503C101.226 103.306 101.095 103.125 100.953 102.954L100.917 103.001V103.001C100.828 103.117 100.617 102.99 100.67 102.857L100.732 102.703V102.703C100.244 102.184 99.6608 101.752 99.1242 101.286C97.8492 101.071 96.415 101.307 95.5365 101.826C93.5358 103.009 92.6168 105.448 92.5978 107.691C92.5746 110.316 93.3861 113.266 94.7564 115.511C95.3596 116.498 96.186 117.389 97.2779 117.827C98.3617 118.262 99.536 118.127 100.639 118.537C101.368 118.81 101.817 119.622 101.376 120.357C101.347 120.408 101.313 120.454 101.281 120.503L101.609 120.939C101.835 121.241 102.07 121.565 102.289 121.902C102.85 122.549 103.44 123.172 104.012 123.808C105.068 124.981 106.093 126.186 107.132 127.376C108.112 128.498 109.149 129.553 110.218 130.59C111.228 131.573 112.489 132.4 113.416 133.448C114.319 134.471 114.563 136.257 113.079 136.849C111.437 137.505 109.983 135.967 108.878 134.941L108.831 134.898C106.805 133.028 104.975 130.892 103.522 128.54C102.082 129.522 100 129.616 98.5666 128.634C97.8123 128.117 97.2336 127.249 96.9523 126.304C96.6871 126.364 96.4221 126.398 96.1637 126.394C96.0306 126.472 95.8972 126.547 95.7623 126.617C94.6932 127.175 93.38 126.926 92.8909 125.74C92.4455 124.663 92.9044 123.441 93.3056 122.403L93.3884 122.189C93.6161 121.598 93.867 120.953 94.179 120.346C93.3104 119.691 92.5681 118.877 91.9401 117.952C89.8297 114.834 88.7756 110.275 89.2415 106.556C89.5219 104.311 90.5737 101.986 92.2961 100.473L92.2331 100.308V100.308C91.7503 99.0804 91.3116 97.848 91.0272 96.5505C90.6941 95.033 90.5316 93.4606 90.3842 91.9156C90.0722 88.6524 90.1565 85.3151 90.5718 82.0646C91.3519 75.946 93.3294 69.9394 96.8396 64.848C95.8443 63.6536 95.056 62.2482 95.4669 60.6315C95.6547 59.8895 96.0825 59.1859 96.7278 58.7609C97.0839 58.5265 97.5079 58.4906 97.8642 58.2961L97.9713 58.237C98.1278 58.1454 98.0081 58.1551 97.9147 57.7297C97.5458 56.0302 97.8515 54.3882 99.7173 53.8239C101.473 53.2935 103.135 54.4199 104.174 55.762C106.894 53.828 110.478 52.8158 113.629 51.9556C117.213 50.9811 120.89 50.3726 124.582 49.9962ZM95.2058 106.997C95.1929 105.613 96.5021 104.759 97.7904 104.986C98.6555 105.137 99.3772 105.654 100.055 106.189L100.385 106.451C101.21 107.101 102.158 107.801 102.65 108.72C103.371 110.077 101.847 111.903 100.424 110.952C99.4474 110.296 98.8217 109.245 98.1814 108.269L98.1151 108.168C97.8242 107.731 97.5691 107.266 97.1704 106.915L97.0843 106.839C96.9533 106.727 96.8126 106.625 96.6434 106.577C96.3169 106.483 95.7123 106.615 95.5684 107.004L95.5555 107.044C95.5028 107.241 95.2079 107.198 95.2058 106.997Z" fill="#BD9E6F"/>
<path fill-rule="evenodd" clip-rule="evenodd" d="M145.532 132.536L145.983 132.416C147.597 131.976 149.272 131.278 150.813 132.235C151.37 132.58 151.453 133.315 151.014 133.79C149.765 135.14 147.922 134.878 146.234 134.892L146.151 134.892C144.453 134.916 142.767 134.831 141.086 134.587C140.864 134.555 140.82 134.187 141.022 134.099C142.485 133.457 143.991 132.951 145.532 132.536V132.536ZM148.271 107.866C149.866 108.836 152.297 111.098 150.581 113.504C148.56 115.624 145.652 113.193 144.218 112.093C142.889 111.241 141.396 113.433 142.629 114.428C152.986 122.099 157.19 108.12 149.078 106.726C148.184 106.572 147.853 107.566 148.271 107.866ZM159.363 95.1088C161.936 95.03 161.939 99.1202 159.363 99.1092C158.594 99.1058 157.825 99.1056 157.056 99.1039C157.502 100.734 157.247 102.677 156.44 104.046C155.908 104.949 154.634 105.114 153.889 104.375C152.604 103.099 152.351 101.234 152.805 99.5419L152.712 99.3206V99.3206C152.681 99.2481 152.66 99.1747 152.642 99.101C150.156 99.1031 147.67 99.1091 145.185 99.1131L141.456 99.117C139.036 99.1179 136.614 99.1375 134.193 99.1149C134.223 99.16 134.253 99.2048 134.277 99.2561C134.428 99.5742 134.492 99.9758 134.539 100.32C134.621 100.91 134.611 101.545 134.518 102.133C134.45 102.562 134.325 103.074 134.087 103.479L134.085 103.487V103.487C133.972 103.967 133.83 104.427 133.459 104.773C133.348 104.877 133.239 104.951 133.124 105.004C132.907 105.231 132.628 105.381 132.261 105.386C132.066 105.388 131.852 105.331 131.645 105.25C131.327 105.277 130.998 105.133 130.716 105.005C130.491 104.903 130.283 104.767 130.116 104.589C130.038 104.571 129.959 104.54 129.88 104.491C129.396 104.193 129.21 103.596 129.185 103.056C129.184 103.024 129.185 102.989 129.184 102.956C129.166 102.883 129.15 102.809 129.138 102.735C128.977 101.777 129.172 100.698 129.377 99.7661C129.429 99.533 129.471 99.2622 129.534 99.0004C129.051 98.9816 128.568 98.963 128.085 98.9431C126.875 98.8937 125.398 99.0558 124.279 98.5441C124.197 98.5071 124.219 98.3985 124.279 98.356C125.312 97.6169 126.918 97.4972 128.163 97.2538L128.269 97.2326C129.753 96.9281 131.237 96.6719 132.736 96.4532C135.622 96.0322 138.545 95.8056 141.456 95.6425C147.417 95.3085 153.396 95.2912 159.363 95.1088Z" fill="black"/>
<path fill-rule="evenodd" clip-rule="evenodd" d="M152.745 131.526C150.778 129.772 148.572 126.247 145.746 129.036C145.047 129.824 144.764 131.591 143.695 131.938C142.275 132.398 140.868 130.896 140.384 129.742C138.404 123.33 146.588 121.571 151.249 122.607C153.527 123.543 155.204 127.309 155.306 129.275C155.371 130.596 154.254 132.538 152.745 131.526M167.589 121.643C167.57 121.558 167.543 121.481 167.511 121.411C166.64 121.082 165.952 121.417 165.526 122.044C165.54 122.2 165.587 122.358 165.616 122.512C165.288 123.204 164.992 124.06 164.547 124.658C164.459 124.665 164.368 124.656 164.28 124.63C156.904 125.401 160.505 117.681 153.024 115.763C147.241 114.809 136.789 115.902 134.061 121.923C131.909 131.542 120.969 124.84 117.377 119.838C113.545 115.285 111.066 109.723 108.677 104.325C108.172 103.182 106.596 103.999 106.768 105.095C104.559 109.528 104.632 114.851 104.085 119.707C103.155 129.394 102.249 142.979 111.246 148.894C122.968 162.15 152.241 166.827 165.762 154.648C170.442 144.581 169.865 132.301 167.589 121.643" fill="#D67641"/>
</svg>
