<svg width="36" height="29" viewBox="0 0 36 29" fill="none" xmlns="http://www.w3.org/2000/svg"><path d="M35.3282 4.22645c-1.2849.56536-2.6726.94227-4.1216 1.11027 1.4829-.87551 2.618-2.26146 3.1571-3.91016-1.3877.80766-2.9253 1.39994-4.559 1.71655C28.4924 1.77008 26.6269.915039 24.5622.915039c-3.9641 0-7.1769 3.163881-7.1769 7.067571 0 .55137.0612 1.08981.1848 1.60886-5.9664-.29614-11.25694-3.11003-14.79675-7.38956-.61566 1.0435-.96997 2.26145-.96997 3.55371 0 2.44991 1.26414 4.61658 3.19206 5.88298-1.17556-.0334-2.28223-.3564-3.2533-.8819v.0872c0 3.4255 2.47469 6.2868 5.76189 6.9319-.60145.1615-1.2368.2487-1.89293.2487-.46476 0-.90873-.0473-1.35271-.1281.91639 2.8063 3.56823 4.8524 6.70451 4.9138-2.46047 1.8975-5.54973 3.0293-8.91894 3.0293-.58067 0-1.148224-.0334-1.715774-.1013C3.51368 27.7509 7.28532 28.915 11.3391 28.915c13.2045 0 20.4285-10.7752 20.4285-20.11719 0-.30906-.0066-.61274-.0208-.91535 1.4009-.98965 2.618-2.23453 3.5814-3.65493v-.00108z" fill="url(#paint0_linear_161_124)"/><defs><linearGradient id="paint0_linear_161_124" x1="17.8282" y1=".915039" x2="17.8282" y2="28.915" gradientUnits="userSpaceOnUse"><stop stop-color="#4176FF"/><stop offset=".515625" stop-color="#4198FF"/><stop offset="1" stop-color="#41AFFF"/></linearGradient></defs></svg>